# xmcd
#
# Track frame offsets:
#	150
#	11504
#	21156
#	30453
#	41268
#	49467
#	58882
#	69319
#	80753
#	89856
#	101794
#	111855
#	120876
#
# Disc length: 1735 seconds
# Revision: 1
# Processed by: cddbd v1.5.2PL0 Copyright (c) Steve Scherf et al.
# Submitted via: dBpowerAMP V12.0
#
DISCID=ab06c50d
DTITLE=Johnny Cash - Now There Was A Song
DYEAR=1960
DGENRE=Country
TTITLE0=Seasons Of My Heart
TTITLE1=I Couldn't Keep From Crying
TTITLE2=I Feel Better All Over
TTITLE3=My Shoes Keep Walking Back To You
TTITLE4=Time Changes Everything
TTITLE5=I'd Just Be Fool Enough (To Fall)
TTITLE6=Why Do You Punish Me
TTITLE7=Transfusion Blues
TTITLE8=I Will Miss You When You Go
TTITLE9=I'm So Lonesome I Could Cry
TTITLE10=Just One More
TTITLE11=Honky Tonk Girl
TTITLE12=Down The Street To 301 (1960 Bonus Track)
EXTD=
EXTT0=
EXTT1=
EXTT2=
EXTT3=
EXTT4=
EXTT5=
EXTT6=
EXTT7=
EXTT8=
EXTT9=
EXTT10=
EXTT11=
EXTT12=
PLAYORDER=
